<?xml version="1.0" encoding="UTF-8"?>
<svg id="Layer_1" data-name="Layer 1" xmlns="http://www.w3.org/2000/svg" viewBox="0 0 665.45 362.09">
  <defs>
    <style>
      .cls-1 {
        stroke-width: 0px;
      }
    </style>
  </defs>
  <path class="cls-1" d="m199.05,197.17c13.29,1.22,18.31,6.74,18.45,19.95.06,5.77.01,11.55.01,18.05,6.31-.68,12.96,2.28,18.62-2.28,1.91-1.54,3.33-4.38,3.81-6.85,1.52-7.93,1.92-16.11,3.88-23.92,1.07-4.26,3.89-8.42,6.85-11.8,4.09-4.67,9.96-2.85,10.88,3.29,1.86,12.32-.6,23.94-6.55,34.94-1.08,1.99-.67,4.78-.94,7.2,2.62.15,5.92,1.39,7.75.26,8.41-5.17,14.54-11.23,16.23-22.55,3.44-23.06,9.17-45.78,14.15-68.61,1.02-4.67,2.69-9.21,4.36-13.71,1.48-3.99,4.57-6.09,8.93-5.68,3.87.36,5.41,3.06,5.42,6.54.03,20.28-.03,40.56-7.82,59.81-3.15,7.79-6.36,15.56-9.8,23.23-3.25,7.25-.78,14.13.54,22.32,6.01-5.19,12.09-8.52,12.41-17.03.8-21.25,2.48-42.51,8.52-62.99,2.77-9.39,7.57-18.21,11.84-27.11,1.84-3.84,4.98-6.92,9.92-5.57,4.7,1.28,6.69,4.8,6.13,9.48-1.42,11.99-1.94,24.21-4.79,35.87-4.24,17.35-10.01,34.34-15.45,51.39-2.08,6.53-1.15,10.68,3.75,11.93,4.1,1.05,8.14-2.6,7.17-6.74-3.44-14.69.3-28.01,8.3-40.17,2.06-3.12,6.1-6.06,9.71-6.83,8.98-1.93,14.06,3.41,11.66,12.28-3.27,12.08-7.49,23.91-11.54,36.56,2.42,1.98,5.56,1.52,8.74-1.18,9.05-7.7,14.46-17.98,20.16-28.06,1.04-1.84,1.75-3.87,2.69-5.77,1.58-3.2,4.31-5.09,7.66-3.74,3.27,1.31,5.9,3.82,4.43,7,5.39-1.7,11.24-4.09,17.33-5.33,11.53-2.36,19.03,2.43,20.57,14.19,1.12,8.58.46,17.49-.26,26.18-.46,5.59-6.4,9.3-11.07,8.07-5.24-1.38-7.17-6.8-5.6-12.88,1.64-6.36,2.54-12.94,3.37-19.47.52-4.11-1.3-5.98-5.93-5.32-9.21,1.32-15.5,6.89-20,14.14-3.51,5.66-5.74,12.2-7.9,18.57-1.28,3.78-2.82,7.5-6.95,6.99-2.87-.36-5.4-3.36-8.83-5.69-.02.02-1.26,1.04-2.56,2-6.74,4.94-13.89,6.79-21.96,3.23-1.36-.6-3.66-.67-4.79.09-10.09,6.8-21.68,6.95-31.45.11-16.67,12.33-23.91,11.66-29.7-2.09-5.79,3.2-11.31,7.44-17.56,9.39-6.89,2.15-13.48-.47-18.25-6.89-9.7,7.56-20.81,5.08-31.46,5.11-4.89.01-7.66-3.91-7.59-9.85.09-7.46.7-14.92.82-22.39.11-6.66-1.62-7.64-8.01-6.54-12.14,2.08-21.27,9.57-30.85,16.33-2.84,2.01-5.75,3.95-8.79,5.64-3.12,1.74-5.79.51-7.82-2.09-2.27-2.92-1.35-5.68,1.03-7.98,1.41-1.37,3.18-2.38,4.8-3.54,17.92-12.73,32.17-29.17,46.24-45.75,15.45-18.21,30.94-36.4,46.01-54.92,28.55-35.07,56.44-70.65,81.68-108.22,1.57-2.33,3.31-4.67,5.44-6.45,1.22-1.02,3.39-.92,5.12-1.32.02,1.74.68,3.84-.04,5.18-17.59,32.45-36.24,64.25-59.44,93.12-18.69,23.25-37.59,46.34-56.53,69.38-8.1,9.85-16.54,19.4-25.18,29.5Z"/>
  <path class="cls-1" d="m172.25,53.19c-32.63,52.06-64.91,104.38-101.91,153.92.76.39,1.35.63,1.88.96,1.72,1.07,3.42,2.18,5.13,3.27-1.5,1.63-2.8,4.42-4.53,4.71-14.33,2.42-22.71,13.54-33.17,21.69-6.53,5.09-13.46,9.74-20.58,13.98-3.14,1.87-7.28,3.28-10.8,2.98-2.87-.25-6.82-2.82-7.86-5.35-1.03-2.5-.11-7.51,1.86-9.22,6.23-5.4,13.11-10.19,20.23-14.39,6.25-3.68,12.99-6.73,19.83-9.18,10.41-3.73,16.53-12.03,22.69-20.14,30.72-40.47,58.13-83.15,84.73-126.38,7.62-12.37,15.7-24.47,23.7-36.6,2.1-3.18,4.64-6.29,9.24-4.77,4.76,1.57,5.59,5.45,4.81,9.68-2.2,11.9-4.4,23.81-7.01,35.62-11.17,50.55-21.04,101.44-34.22,151.46-10.58,40.17-25.24,79.27-38.12,118.84-1.13,3.46-2.46,6.85-3.63,10.3-1.48,4.36-4.54,6.8-9.03,7.4-4.66.62-8.53-.82-11.02-4.97-2.56-4.26-2.28-8.42.63-12.48,1.05-1.47,2.11-3.05,2.67-4.74,15.34-46.25,31.57-92.23,45.59-138.88,10.83-36.04,18.82-72.92,28.22-109.39,3.31-12.83,7.08-25.54,10.64-38.31Z"/>
  <path class="cls-1" d="m507.52,262.15c10.05-20.21,19.64-41.12,30.69-61.24,11.61-21.13,24.43-41.62,37.08-62.17,14.22-23.09,28.76-45.99,43.33-68.86,8.44-13.25,17.26-26.26,25.87-39.4,4.74-7.25,12.57-8.94,18.12-3.83,3.6,3.32,3.87,11.17.24,16.6-4.5,6.73-9.26,13.3-13.91,19.93-22.63,32.25-45.22,64.51-67.89,96.73-30.35,43.11-53.17,90.06-71.23,139.39-2.77,7.57-4.3,15.6-6.28,23.45-.92,3.66-3.01,6.12-6.82,5.9-3.78-.23-6.79-1.9-6.27-6.6.18-1.65-.13-3.37.23-4.96,5.37-23.7,5.53-47.76,4.67-71.83-.87-24.21-1.81-48.44-3.84-72.57-2.03-24.09-4.96-48.12-8.47-72.04-1.52-10.34-5.41-20.35-8.37-30.46-1.49-5.1-4.98-6.56-10.07-5.08-16.7,4.88-27.1,16.55-34.3,31.62-.66,1.38-.02,3.35-.17,5.02-.17,1.82-.29,5.04-.93,5.17-2.03.41-4.91.4-6.35-.79-3.51-2.88-3.92-7.13-2.87-11.42,4.02-16.43,26.13-39.65,45.77-41.4,6.28-.56,11.45.98,15.69,5.64,6.5,7.16,9.52,15.99,10.87,25.18,2.78,18.99,4.99,38.06,7.2,57.13,1.9,16.45,3.91,32.9,5.05,49.41,1.21,17.55,1.44,35.16,2.13,52.75.25,6.46.59,12.92.86,18.73Z"/>
  <path class="cls-1" d="m600.18,257.9c-10.1,6.91-20.76,6.42-31.5,3.74-7.73-1.93-12.71-8.67-11.37-18.06,1.93-13.53,5.42-26.85,8.43-40.22.71-3.15,2.85-5.53,6.44-4.78,3.72.78,4.94,3.74,4.4,7.24-1.36,8.83-2.88,17.64-4.33,26.46-.22,1.31-.67,2.66-.53,3.94.44,4.03-.34,9.93,1.96,11.69,5.97,4.55,16.53,2.54,21.3-2.08,6.9-6.67,9.59-15.26,11.6-24.21,1.31-5.83,2.71-11.63,3.96-17.47.97-4.55,3.7-6.49,8.25-5.74,4.56.75,4.48,4.38,4.15,7.64-1.71,16.83-3.42,33.66-5.64,50.42-.31,2.38-3,5.53-5.27,6.29-2.49.83-5.85-.46-8.67-1.34-1.19-.37-1.95-2.09-3.19-3.52Z"/>
</svg>